<svg width="93" height="70" viewBox="0 0 93 70" fill="none" xmlns="http://www.w3.org/2000/svg">
<path d="M34.3797 67.1108V69.0052H23.5374C23.2594 64.2242 23.2594 65.2165 20.016 52.1368C16.3092 37.1624 15.8459 36.8923 13.1585 36.8923H12.9736V63.5025C12.9736 66.2087 13.159 66.299 17.4217 67.1108V69.0052H0V67.1108C4.26277 66.299 4.4481 66.2087 4.4481 63.5025V6.85323C4.4481 4.14701 4.26277 4.05681 0 3.24494V1.35059H16.3092C26.3175 1.35059 31.0436 7.21406 31.0436 17.2266C31.0436 28.9536 25.3908 34.817 17.9773 35.8093C22.9814 36.2604 24.0934 37.7939 28.1709 51.5049C32.7116 66.6598 32.2483 66.1185 34.3797 67.1108ZM22.0547 18.49C22.0547 8.29655 19.9233 3.33515 16.3092 3.33515C13.8999 3.33515 12.9732 4.32743 12.9732 9.82962V34.546H14.5485C19.0893 34.5464 22.0547 30.3067 22.0547 18.49Z" fill="white"/>
<path d="M63.75 42.6679V44.5622H47.4403V42.6679C52.7224 42.1266 53.0004 42.2169 50.7764 37.3457L45.958 26.8816L41.7879 37.3457C39.8419 42.3071 40.3052 42.1266 44.1973 42.6679V44.5622H32.9844V42.6679C36.3205 41.856 36.0425 41.405 38.1739 37.3457L44.9387 24.6264L37.5252 8.47977C35.6718 4.42044 35.3011 4.05961 32.7991 3.15754V1.26318H49.1088V3.15754C43.2706 3.69878 43.5486 3.60857 45.7727 8.47977L50.8695 19.5753L54.7611 8.47977C56.5223 3.51837 56.2438 3.69878 52.3522 3.15754V1.26318H63.5646V3.15754C60.2286 3.9694 60.3212 4.42044 58.3752 8.47977L51.8888 21.8305L59.0239 37.3457C60.8768 41.405 61.2475 41.7658 63.75 42.6679Z" fill="white"/>
<path d="M66.5344 35.0902C66.5344 11.4563 72.5579 0 82.9363 0C86.828 0 89.9792 1.53352 92.0179 3.51808V21.4689H91.0912C85.4389 5.41199 84.2337 1.98411 81.2688 1.98411C77.0987 1.98411 75.616 12.4482 75.616 34.4583C75.616 53.3112 78.9521 68.015 82.751 68.015C85.0677 68.015 85.6238 66.2108 91.0912 48.7111H92.0179V66.4819C90.0719 68.3763 86.6431 70 82.9363 70C72.5579 70 66.5344 59.4457 66.5344 35.0902Z" fill="white"/>
</svg>
