<?xml version="1.0" encoding="UTF-8"?>
<svg width="280px" height="137px" viewBox="0 0 280 137" version="1.1" xmlns="http://www.w3.org/2000/svg" xmlns:xlink="http://www.w3.org/1999/xlink">
    <!-- Generator: Sketch 55.1 (78136) - https://sketchapp.com -->
    <title>Streamr_Primary_Lockup_Positive@1.5x</title>
    <desc>Created with Sketch.</desc>
    <g id="Downloadable-Assets-" stroke="none" stroke-width="1" fill="none" fill-rule="evenodd">
        <g id="Stream-Primary-Lockup-Positive" transform="translate(-32.000000, -35.000000)" fill-rule="nonzero">
            <g id="Streamr_Primary_Lockup_Positive" transform="translate(32.000000, 35.000000)">
                <g id="Streamr" transform="translate(109.205206, 101.432471)" fill="#0D009A">
                    <path d="M0.88706019,29.4558249 L5.63982797,24.6773966 C7.70185201,27.1111668 10.7298527,28.5021193 13.9096439,28.4762471 C17.4108495,28.4762471 19.1060033,26.8834377 19.1060033,24.4942235 C19.1060033,22.6863848 18.3138754,21.3563889 15.2800253,20.9263304 L12.0164581,20.4962718 C5.06949584,19.5963345 1.90098398,16.1717942 1.90098398,10.6128893 C1.90098398,4.67171008 6.53493257,0.53836959 14.2819441,0.53836959 C19.2485864,0.53836959 22.9953516,2.20285545 25.7202718,5.1973372 L20.9675041,10.0474419 C19.2220703,7.92195077 16.575663,6.75715743 13.8383524,6.90960734 C10.6223129,6.90960734 9.08558461,8.14403466 9.08558461,10.1430105 C9.08558461,12.420728 10.2658553,13.2808451 13.0462244,13.7109036 L16.3097916,14.2365308 C23.0666432,15.3276052 26.3302104,18.3698712 26.3302104,24.072129 C26.3302104,30.4433668 21.6962618,34.863413 13.4739735,34.863413 C7.64391172,34.8235927 3.73079958,32.5856955 0.88706019,29.4558249 Z" id="Shape"></path>
                    <path d="M38.8933599,34.2501813 C34.0693006,34.2501813 31.5186485,31.7335424 31.5186485,26.9790063 L31.5186485,14.7701219 L28.0174429,14.7701219 L28.0174429,9.30678555 L29.7680457,9.30678555 C31.6612316,9.30678555 32.2236424,8.35906393 32.2236424,6.64679378 L32.2236424,2.56123758 L38.5131385,2.56123758 L38.5131385,9.30678555 L43.4322531,9.30678555 L43.4322531,14.7701219 L38.5131385,14.7701219 L38.5131385,28.786845 L43.0520317,28.786845 L43.0520317,34.2501813 L38.8933599,34.2501813 Z" id="Shape"></path>
                    <path d="M46.6482926,34.2501813 L46.6482926,9.2988215 L53.6348613,9.2988215 L53.6348613,14.7143736 L53.8724997,14.7143736 C54.4428318,11.9588133 56.3280963,9.2988215 60.2095234,9.2988215 L61.4373217,9.2988215 L61.4373217,15.8532323 L59.6867189,15.8532323 C55.6231025,15.8532323 53.6348613,16.7531697 53.6348613,19.6520828 L53.6348613,34.2422173 L46.6482926,34.2501813 Z" id="Shape"></path>
                    <path d="M62.7680967,21.7545913 C62.7680967,13.8622205 66.9267685,8.73337415 74.3965352,8.73337415 C82.6188235,8.73337415 85.9299183,14.7223376 85.9299183,21.4758497 L85.9299183,23.5703941 L70.000225,23.5703941 L70.000225,23.9526683 C70.000225,27.2338558 71.7508278,29.3204361 75.4817505,29.3204361 C78.412624,29.3204361 80.0206437,27.942656 81.5811358,26.3259544 L85.0823414,30.6982163 C82.8643831,33.2626395 79.2205945,34.8315568 74.6817013,34.8315568 C67.1010367,34.8235927 62.7680967,29.7345666 62.7680967,21.7545913 Z M70.000225,19.0468153 L70.000225,19.4290895 L78.7136326,19.4290895 L78.7136326,18.9671748 C78.7136326,15.9249088 77.3432512,13.8781486 74.5549608,13.8781486 C71.7666704,13.8781486 70.000225,15.9567649 70.000225,19.0468153 L70.000225,19.0468153 Z" id="Shape"></path>
                    <path d="M108.054052,34.2501813 C105.550928,34.2501813 103.752798,32.5379112 103.301285,29.8779194 L103.016119,29.8779194 C102.223991,33.1113226 99.5149129,34.8235927 95.7364625,34.8235927 C90.7698202,34.8235927 88.0290574,31.8768953 88.0290574,27.5524177 C88.0290574,22.2802184 92.0926739,19.7556155 98.667336,19.7556155 L102.627976,19.7556155 L102.627976,18.162806 C102.627976,15.7735919 101.447705,14.1807824 98.5168317,14.1807824 C96.3434584,14.1420187 94.312148,15.2631503 93.1778892,17.1274799 L89.0192174,13.4241979 C91.0074586,10.4775005 93.8432767,8.64576963 99.0396361,8.64576963 C106.034126,8.64576963 109.630387,11.8791728 109.630387,17.7725677 L109.630387,28.7072045 L111.943401,28.7072045 L111.943401,34.1705409 L108.054052,34.2501813 Z M102.620055,26.6923006 L102.620055,23.7456031 L99.2139043,23.7456031 C96.5206692,23.7456031 95.1027602,24.741109 95.1027602,26.5489477 L95.1027602,27.265712 C95.1027602,29.0735507 96.2830308,29.9257037 98.3663274,29.9257037 C100.679341,29.9257037 102.612133,28.9779821 102.612133,26.7002646 L102.620055,26.6923006 Z" id="Shape"></path>
                    <path d="M114.953487,34.2501813 L114.953487,9.2988215 L121.947977,9.2988215 L121.947977,13.5277306 L122.233143,13.5277306 C123.092049,10.5809791 125.844034,8.60701247 128.894939,8.74930224 C132.097073,8.59356435 134.980391,10.6859184 135.841901,13.7905441 L136.016169,13.7905441 C136.911274,10.9871995 139.79462,8.74930224 143.580992,8.74930224 C148.333759,8.74930224 151.003231,12.3649797 151.003231,18.6326848 L151.003231,34.2661094 L143.937449,34.2661094 L143.937449,19.1901681 C143.937449,15.9567649 142.852234,14.4117398 140.531299,14.4117398 C138.448002,14.4117398 136.420155,15.5983828 136.420155,18.0672375 L136.420155,34.2262892 L129.425665,34.2262892 L129.425665,19.1901681 C129.425665,15.9567649 128.292922,14.4117398 126.019515,14.4117398 C123.983746,14.4117398 121.90837,15.5983828 121.90837,18.0672375 L121.90837,34.2262892 L114.953487,34.2501813 Z" id="Shape"></path>
                    <path d="M155.08269,34.2501813 L155.08269,9.2988215 L162.077179,9.2988215 L162.077179,14.7143736 L162.314818,14.7143736 C162.88515,11.9588133 164.770415,9.2988215 168.651842,9.2988215 L169.87964,9.2988215 L169.87964,15.8532323 L168.129037,15.8532323 C164.065421,15.8532323 162.077179,16.7531697 162.077179,19.6520828 L162.077179,34.2422173 L155.08269,34.2501813 Z" id="Shape"></path>
                </g>
                <path d="M84.419399,7.19071453 L84.419399,3.32815164 C84.4199169,2.67758139 84.1565426,2.05493097 83.6901082,1.60401491 C83.2236739,1.15309885 82.5945187,0.912914458 81.9479597,0.938937485 C55.9595479,2.23117007 35.241133,23.2375924 34.1746953,49.3762725 C34.1718343,49.9431325 34.4011093,50.486204 34.8086818,50.8778988 C35.2162543,51.2695936 35.766198,51.475385 36.3293103,51.4469248 L40.2899501,51.4469248 C41.5125829,51.4579932 42.5311031,50.5073678 42.6108851,49.2807039 C43.7329991,27.7380045 60.85364,10.524928 82.2806535,9.3967556 C83.9124371,9.18969037 84.4352415,8.28975304 84.4352415,7.19867858 L84.419399,7.19071453 Z M49.1142557,51.4867548 L52.8689422,51.4867548 C54.0725818,51.4902319 55.0748073,50.5590367 55.1661133,49.3523803 C56.2065979,34.6708606 67.8628379,23.0128844 82.4707642,22.0436625 C83.618325,21.9627557 84.4873329,20.9683008 84.419399,19.8137293 L84.419399,15.9670945 C84.4052327,15.3219139 84.1320772,14.7099333 83.6620895,14.2704099 C83.1921018,13.8308865 82.5652575,13.6012046 81.9241959,13.6336287 C63.0533256,14.8892658 48.0227037,29.997634 46.7695569,48.9701061 C46.7373069,49.6146288 46.9657554,50.2448575 47.4029186,50.7173827 C47.8400817,51.1899079 48.4487759,51.4645381 49.0904918,51.4787809 L49.1142557,51.4867548 Z M84.4194144,28.6538217 L84.4194144,32.5163846 C84.4088122,33.671189 83.5346117,34.6325081 82.3915514,34.7463178 C74.7624114,35.6856195 68.7438285,41.7170083 67.7847118,49.3842365 C67.6391408,50.5636174 66.6535289,51.456136 65.4716981,51.4787809 L62.1526819,51.4787809 C60.3466302,51.4787809 59.2614149,50.300102 59.3960766,48.9382499 C60.6003183,36.9810712 70.0070411,27.5268898 81.9004321,26.3203559 C82.5495096,26.2644666 83.1920678,26.4854114 83.6711623,26.9292245 C84.1502568,27.3730376 84.421775,27.9988552 84.4194144,28.6538217 L84.4194144,28.6538217 Z M128.445871,85.079096 C127.360656,85.079096 126.465551,84.5534689 126.259598,82.9128752 C125.151351,61.343317 108.004172,44.1069975 86.5502232,42.9970707 C85.3301466,42.916858 84.3846261,41.8928387 84.3956351,40.6636049 L84.3956351,36.6815813 C84.3673277,36.1154287 84.572014,35.5625157 84.9616054,35.1527427 C85.3511967,34.7429697 85.8913519,34.5124569 86.4551678,34.5153333 C112.456569,35.5835206 133.354706,56.4148782 134.640312,82.546529 C134.668176,83.1897159 134.436686,83.8169894 133.998285,84.2862421 C133.559885,84.7554947 132.951679,85.0270097 132.311456,85.0392758 L128.445871,85.079096 Z M84.419399,49.5674096 C84.4334859,48.9207729 84.7077311,48.3075066 85.1794696,47.867742 C85.651208,47.4279773 86.2801288,47.1992932 86.9225233,47.2339438 C105.787495,48.4929468 120.812747,63.5959163 122.069241,82.5624571 C122.103706,83.2083201 121.87625,83.8406364 121.438846,84.3149218 C121.001443,84.7892072 120.39147,85.0649331 119.748306,85.079096 L115.922328,85.079096 C114.765265,85.1470637 113.772376,84.2593349 113.70437,83.0960483 C112.733248,68.4182685 101.1442,56.7088675 86.5502232,55.6599057 C85.3500467,55.5681068 84.4238521,54.5604702 84.4273203,53.350332 L84.419399,49.5674096 Z M107.121786,85.071132 L103.272045,85.071132 C102.123442,85.0604881 101.167285,84.1815677 101.054086,83.0323359 C100.119045,75.3594254 94.1159924,69.3075527 86.486853,68.3466329 C85.3138055,68.200276 84.4260797,67.2093427 84.4035383,66.0211311 L84.4035383,62.2621008 C84.4009801,61.6056219 84.6735697,60.9784188 85.1544627,60.5343361 C85.6353556,60.0902534 86.2800623,59.8703753 86.9304446,59.928635 C98.8238355,61.1351689 108.230558,70.5893503 109.4348,82.546529 C109.490389,83.199111 109.270631,83.8451384 108.829201,84.3268196 C108.387771,84.8085007 107.765314,85.0814849 107.113865,85.0791116 L107.121786,85.071132 Z M6.85422881,51.4708169 C7.93944412,51.4708169 8.83454871,51.996444 9.04050199,53.6370377 C10.1498204,75.2152595 27.3104174,92.4547493 48.7736406,93.5528422 C49.9937173,93.6330549 50.9392377,94.6570742 50.9282287,95.8863081 L50.9282287,99.8683317 C50.9565361,100.434484 50.7518498,100.987397 50.3622585,101.39717 C49.9726671,101.806943 49.4325119,102.037456 48.868696,102.03458 C22.8672951,100.966392 1.96915761,80.1350348 0.683551972,54.0033839 C0.655687695,53.3601971 0.887177715,52.7329235 1.32557841,52.2636709 C1.7639791,51.7944182 2.37218499,51.5229033 3.01240818,51.5106371 L6.85422881,51.4708169 Z M50.9044649,86.9506471 C50.8903779,87.5972838 50.6161327,88.2105502 50.1443943,88.6503148 C49.6726558,89.0900794 49.0437351,89.3187636 48.4013405,89.284113 C29.5478785,88.022662 14.5299753,72.9338873 13.262544,53.9794918 C13.2280795,53.3336288 13.4555356,52.7013125 13.8929386,52.2270271 C14.3303417,51.7527417 14.9403148,51.4770158 15.583479,51.4628529 L19.409457,51.4628529 C20.5665204,51.3948852 21.559409,52.282614 21.6274153,53.4459006 C22.59428,68.1239794 34.1799531,79.8367845 48.7736406,80.8900072 C49.9738171,80.9818062 50.9000117,81.9894428 50.8965436,83.1995809 L50.9044649,86.9506471 Z M28.1783136,51.4708169 L32.0201342,51.4708169 C33.1687372,51.4814608 34.1248939,52.3603812 34.2380925,53.509613 C35.1731341,61.1825235 41.1761863,67.2343962 48.8053257,68.195316 C49.9783732,68.3416729 50.866099,69.3326062 50.8886223,70.5208178 L50.8886223,74.2878121 C50.8841812,74.9371113 50.6108531,75.5551885 50.134342,75.9934671 C49.6578309,76.4317456 49.0212328,76.6505873 48.3775766,76.5973858 C36.4841857,75.3908519 27.0774629,65.9366705 25.8732212,53.9794918 C25.8248447,53.3336246 26.0456474,52.6965982 26.4827946,52.2208427 C26.9199419,51.7450873 27.534101,51.4734093 28.1783136,51.4708169 L28.1783136,51.4708169 Z M50.8965436,129.462731 C50.8965436,128.371657 51.419348,127.471719 53.0511316,127.264654 C74.5050803,126.154727 91.6522599,108.918408 92.7605064,87.3488495 C92.8402884,86.1221856 93.8588086,85.1715602 95.0814414,85.1826287 L99.0420812,85.1826287 C99.6051935,85.1541684 100.155137,85.3599598 100.56271,85.7516546 C100.970282,86.1433494 101.199557,86.6864209 101.196696,87.2532809 C100.129937,113.394863 79.407019,134.402368 53.4155105,135.690616 C52.7757776,135.718631 52.1518726,135.485891 51.6851398,135.045123 C51.2184071,134.604355 50.9483502,133.992866 50.93615,133.349186 L50.8965436,129.462731 Z M86.2175295,85.1746646 C86.8606937,85.1888276 87.4706667,85.4645534 87.9080698,85.9388389 C88.3454728,86.4131243 88.572929,87.0454406 88.5384644,87.6913035 C87.2819702,106.657844 72.2567184,121.760814 53.3917467,123.019817 C52.7493521,123.054467 52.1204313,122.825783 51.6486929,122.386019 C51.1769544,121.946254 50.9027092,121.332988 50.8886223,120.686351 L50.8886223,116.839716 C50.8210196,115.676406 51.7039812,114.678157 52.8610209,114.609783 C67.4602773,113.637698 79.1101837,101.989473 80.1577505,87.3169933 C80.2490565,86.110337 81.251282,85.1791418 82.4549216,85.1826287 L86.2175295,85.1746646 Z M50.9123707,107.999624 L50.9123707,104.137061 C50.9229729,102.982257 51.7971734,102.020937 52.9402337,101.907128 C60.5693737,100.967826 66.5879567,94.9364372 67.5470734,87.269209 C67.6926444,86.0898282 68.6782562,85.1973095 69.860087,85.1746646 L73.1791032,85.1746646 C74.9851549,85.1746646 76.0703702,86.3533436 75.9357085,87.7151957 C74.7314668,99.6723743 65.324744,109.126556 53.4313531,110.33309 C52.7822755,110.388979 52.1397173,110.168034 51.6606228,109.724221 C51.1815284,109.280408 50.9100101,108.65459 50.9123707,107.999624 L50.9123707,107.999624 Z M50.9123861,129.462731 C50.9123861,128.371657 51.4351906,127.471719 53.0669742,127.264654 C74.5209229,126.154727 91.6681025,108.918408 92.776349,87.3488495 C92.8561309,86.1221856 93.8746511,85.1715602 95.0972839,85.1826287 L99.0579237,85.1826287 C99.6210361,85.1541684 100.17098,85.3599598 100.578552,85.7516546 C100.986125,86.1433494 101.2154,86.6864209 101.212539,87.2532809 C100.14578,113.394863 79.4228615,134.402368 53.4313531,135.690616 C52.7916202,135.718631 52.1677151,135.485891 51.7009824,135.045123 C51.2342497,134.604355 50.9641928,133.992866 50.9519925,133.349186 L50.9123861,129.462731 Z M86.233372,85.1746646 C86.8765362,85.1888276 87.4865093,85.4645534 87.9239123,85.9388389 C88.3613154,86.4131243 88.5887715,87.0454406 88.554307,87.6913035 C87.2978127,106.657844 72.272561,121.760814 53.4075892,123.019817 C52.7651946,123.054467 52.1362739,122.825783 51.6645354,122.386019 C51.192797,121.946254 50.9185518,121.332988 50.9044649,120.686351 L50.9044649,116.839716 C50.8368622,115.676406 51.7198238,114.678157 52.8768635,114.609783 C67.4761198,113.637698 79.1260263,101.989473 80.1735931,87.3169933 C80.2648991,86.110337 81.2671246,85.1791418 82.4707642,85.1826287 L86.233372,85.1746646 Z M50.9123707,107.999624 L50.9123707,104.137061 C50.9229729,102.982257 51.7971734,102.020937 52.9402337,101.907128 C60.5693737,100.967826 66.5879567,94.9364372 67.5470734,87.269209 C67.6926444,86.0898282 68.6782562,85.1973095 69.860087,85.1746646 L73.1791032,85.1746646 C74.9851549,85.1746646 76.0703702,86.3533436 75.9357085,87.7151957 C74.7314668,99.6723743 65.324744,109.126556 53.4313531,110.33309 C52.7822755,110.388979 52.1397173,110.168034 51.6606228,109.724221 C51.1815284,109.280408 50.9100101,108.65459 50.9123707,107.999624 L50.9123707,107.999624 Z" id="rounded-logo-copy-2" fill="#FF5C00"></path>
            </g>
        </g>
    </g>
</svg>