<?xml version="1.0" encoding="utf-8"?>
<!DOCTYPE svg PUBLIC "-//W3C//DTD SVG 20010904//EN" "http://www.w3.org/TR/2001/REC-SVG-20010904/DTD/svg10.dtd">
<svg version="1.0" xmlns="http://www.w3.org/2000/svg" width="220px" height="220px" viewBox="0 0 220 220" preserveAspectRatio="xMidYMid meet">
 <g fill="#636db3">
  <path d="M101.5 202.1 c-19.4 -6.8 -37.1 -17.7 -50.6 -31.1 -14.7 -14.7 -23.2 -30.2 -26.4 -48.5 -2 -11.9 -2.2 -79.1 -0.2 -81.9 1.1 -1.5 3.7 -2 13.7 -2.7 29.9 -2.2 52.4 -10.3 66.9 -23.8 3 -2.8 5.9 -5.1 6.4 -5.1 0.5 0 3.7 2.6 7.1 5.8 13.6 12.7 36.7 20.8 65.8 23.2 6.6 0.6 12.7 1.5 13.5 2.1 1 0.9 1.3 8.6 1.3 39.9 0 37.6 -0.1 39 -2.4 48.2 -2.7 10.8 -8.4 22.6 -14.9 31.4 -9.8 12.9 -27.4 27.3 -43.2 35.2 -7.5 3.7 -24.8 10.2 -27.2 10.2 -1 0 -5.4 -1.3 -9.8 -2.9z m20.5 -71.5 c0 -0.3 -1.3 -4 -3 -8.3 -4 -10.4 -3.9 -12.6 1 -17.9 2.7 -2.9 4 -5.3 4 -7.1 0 -6 -7.2 -13.3 -13.1 -13.3 -6 0 -13.8 9.1 -12.5 14.5 0.4 1.4 2.2 4.3 4.1 6.4 4.2 4.6 4.5 8.5 1.4 16.3 -4.4 11.1 -5.4 9.8 7.1 9.8 6.1 0 11 -0.2 11 -0.4z"/>
 </g>
 <g fill="#ffffff">
  <path d="M95.4 132.3 c0.4 -1 2.3 -6 4.3 -11.1 l3.7 -9.2 -3.1 -3.3 c-4.2 -4.4 -5.3 -6.9 -5.3 -11.9 0 -9.4 6.5 -15.8 15.9 -15.8 8.9 0 14.3 4.3 16.2 12.8 1.2 5.3 -0.3 9.8 -4.6 14.2 l-3.5 3.6 4 10.3 c2.2 5.6 4 10.7 4 11.2 0 0.5 -6.9 0.9 -16.1 0.9 -14.9 0 -16.1 -0.1 -15.5 -1.7z"/>
 </g>
</svg>