<svg width="32" height="103" viewBox="32 0 33 103" fill="none" xmlns="http://www.w3.org/2000/svg">
<rect width="64" height="103" rx="20" fill="black"/>
<path d="M41.0889 76.6807L41.0889 74.1758L52.0049 70.4668L41.0889 66.7842L41.0889 64.3057L54 64.3057L54 65.9668L46.3799 65.9668C46.1162 65.9668 45.6797 65.9609 45.0703 65.9492C44.4609 65.9375 43.8076 65.9316 43.1103 65.9316L54 69.6143L54 71.3457L43.1104 75.0547L43.5059 75.0547C43.8223 75.0547 44.3057 75.0488 44.9561 75.0371C45.6006 75.0195 46.0752 75.0107 46.3799 75.0107L54 75.0107L54 76.6807L41.0889 76.6807ZM41.0889 61.4756L41.0889 52.0625L42.6709 52.0625L42.6709 59.7705L46.5908 59.7705L46.5908 52.6426L48.085 52.6426L48.085 59.7705L52.4619 59.7705L52.4619 51.9307L54 51.9307L54 61.4756L41.0889 61.4756ZM41.0889 49.6367L41.0889 47.5713L51.5478 41.0498L41.0889 41.0498L41.0889 39.3887L54 39.3887L54 41.3486L43.5498 47.9668L54 47.9668L54 49.6367L41.0889 49.6367ZM41.0889 34.7305L49.0693 34.7305C50.0068 34.7305 50.7861 34.5547 51.4072 34.2031C52.3447 33.6816 52.8135 32.8027 52.8135 31.5664C52.8135 30.084 52.3066 29.0762 51.293 28.543C50.7422 28.2559 50.001 28.1123 49.0693 28.1123L41.0889 28.1123L41.0889 26.3369L48.3398 26.3369C49.9277 26.3369 51.1494 26.5508 52.0049 26.9785C53.5635 27.7637 54.3428 29.2461 54.3428 31.4258C54.3428 33.6055 53.5635 35.085 52.0049 35.8643C51.1494 36.292 49.9277 36.5059 48.3398 36.5059L41.0889 36.5059L41.0889 34.7305Z" fill="white"/>
</svg>
